<svg id="Layer_1" data-name="Layer 1" xmlns="http://www.w3.org/2000/svg" viewBox="0 0 236 60"><defs><style>.cls-1{fill:none;stroke:#fff;stroke-miterlimit:10;stroke-width:2px;}.cls-2{font-size:13.99px;fill:#fff;font-family:Inter-SemiBold, Inter;font-weight:600;}.cls-3{letter-spacing:-0.01em;}.cls-4{letter-spacing:-0.02em;}.cls-5{letter-spacing:0.01em;}.cls-6{letter-spacing:-0.03em;}</style></defs><path class="cls-1" d="M19.09,30.61a4.93,4.93,0,0,1-9.73,1.1L4,37.07,9.89,43a4.93,4.93,0,1,0,5.47,5.47l5.27,5.27L37.26,37.07,20.63,20.44l-5.36,5.37A4.91,4.91,0,0,1,19.09,30.61Z"/><path class="cls-1" d="M54.13,20.2,37.5,3.57,32,9.11a4.93,4.93,0,1,1-5.36,5.36L20.86,20.2,37.5,36.83l6.2-6.21a4.07,4.07,0,0,1-.5,0,4.93,4.93,0,1,1,4.93-4.93,4.19,4.19,0,0,1,0,.5Z"/><text class="cls-2" transform="translate(67.52 28.55)">Epidemiologic <tspan class="cls-3" x="98.82" y="0">R</tspan><tspan x="107.81" y="0">esea</tspan><tspan class="cls-4" x="140.12" y="0">r</tspan><tspan x="145.35" y="0">ch </tspan><tspan x="0" y="16.79">&amp; Me</tspan><tspan class="cls-5" x="33.72" y="16.79">t</tspan><tspan x="39.19" y="16.79">hods L</tspan><tspan class="cls-6" x="84.17" y="16.79">L</tspan><tspan x="91.69" y="16.79">C</tspan></text></svg>